<svg width="319" height="209" viewBox="0 0 319 209" fill="none" xmlns="http://www.w3.org/2000/svg">
<path d="M258.847 74.2516C252.021 52.8478 238.603 34.1497 220.512 20.8299C202.42 7.51016 180.581 0.250499 158.116 0.0886026C139.122 -0.0203121 120.458 5.04809 104.128 14.7492C87.7982 24.4504 74.4204 38.4176 65.4318 55.1502C48.9119 58.1107 33.768 66.2662 22.2041 78.4297C10.6403 90.5932 3.26017 106.13 1.13791 122.778C-0.984349 139.427 2.26203 156.318 10.4045 170.993C18.5471 185.669 31.1607 197.363 46.4096 204.373L48.3884 205.27H48.5203V182.844C38.0595 176.423 29.8702 166.89 25.1001 155.58C20.33 144.27 19.2182 131.752 21.9206 119.778C24.623 107.805 31.0042 96.9776 40.1696 88.8133C49.3351 80.649 60.8254 75.5572 73.0302 74.2516L78.5706 73.6711L80.9979 68.6847C87.8896 54.0792 98.8078 41.7447 112.469 33.1312C126.13 24.5176 141.966 19.9831 158.116 20.0606C177.359 20.1964 196.004 26.762 211.087 38.7134C226.17 50.6647 236.824 67.3157 241.355 86.0184L243.254 93.564H251.169C263.928 93.8256 276.08 99.0663 285.027 108.167C293.975 117.267 299.009 129.505 299.054 142.267C299.054 160.867 288.316 176.09 270.033 183.794V205.059L271.352 204.637C300.743 195.007 319 171.104 319 142.267C318.879 125.577 312.721 109.494 301.664 96.9918C290.606 84.4892 275.397 76.4116 258.847 74.2516Z" fill="#3448C5"/>
<path d="M119.438 202.684L123.818 207.064C123.936 207.186 124.016 207.339 124.048 207.506C124.081 207.672 124.063 207.845 123.999 208.002C123.934 208.159 123.825 208.293 123.685 208.389C123.545 208.485 123.381 208.538 123.211 208.542H88.649C84.4506 208.542 80.4242 206.874 77.4556 203.905C74.4869 200.936 72.8191 196.91 72.8191 192.712V125.593C72.8191 125.362 72.7274 125.141 72.5641 124.977C72.4008 124.814 72.1794 124.722 71.9485 124.722H64.5612C64.3893 124.724 64.2207 124.675 64.0767 124.581C63.9327 124.487 63.8198 124.353 63.752 124.195C63.6843 124.037 63.6649 123.862 63.6962 123.693C63.7275 123.524 63.8082 123.368 63.928 123.245L93.266 93.9069C93.347 93.8247 93.4435 93.7595 93.55 93.7149C93.6564 93.6704 93.7706 93.6475 93.886 93.6475C94.0014 93.6475 94.1156 93.6704 94.2221 93.7149C94.3285 93.7595 94.425 93.8247 94.506 93.9069L123.818 123.245C123.936 123.367 124.016 123.52 124.048 123.687C124.081 123.853 124.063 124.026 123.999 124.183C123.934 124.34 123.825 124.474 123.685 124.57C123.545 124.666 123.381 124.719 123.211 124.722H115.718C115.485 124.722 115.26 124.813 115.093 124.976C114.925 125.138 114.828 125.36 114.821 125.593V191.551C114.832 195.726 116.491 199.727 119.438 202.684Z" fill="#3448C5"/>
<path d="M184.261 202.685L188.667 207.064C188.787 207.187 188.868 207.343 188.899 207.513C188.93 207.682 188.911 207.856 188.843 208.014C188.776 208.172 188.663 208.306 188.519 208.4C188.375 208.494 188.206 208.543 188.034 208.542H153.551C149.353 208.542 145.327 206.874 142.358 203.905C139.389 200.937 137.722 196.91 137.722 192.712V142.558C137.722 142.324 137.631 142.1 137.468 141.932C137.306 141.765 137.084 141.667 136.851 141.66H129.384C129.215 141.657 129.05 141.604 128.91 141.508C128.77 141.412 128.661 141.278 128.596 141.121C128.532 140.964 128.515 140.791 128.547 140.625C128.579 140.458 128.659 140.305 128.778 140.183L158.089 110.898C158.17 110.816 158.267 110.75 158.373 110.706C158.48 110.661 158.594 110.638 158.709 110.638C158.825 110.638 158.939 110.661 159.045 110.706C159.152 110.75 159.248 110.816 159.329 110.898L188.667 140.13C188.787 140.254 188.868 140.41 188.899 140.579C188.93 140.748 188.911 140.922 188.843 141.08C188.776 141.238 188.663 141.373 188.519 141.466C188.375 141.56 188.206 141.609 188.034 141.608H180.541C180.308 141.615 180.087 141.712 179.924 141.88C179.761 142.047 179.671 142.271 179.671 142.505V191.551C179.674 195.722 181.324 199.723 184.261 202.685Z" fill="#3448C5"/>
<path d="M249.111 202.684L253.491 207.064C253.609 207.186 253.689 207.339 253.721 207.506C253.753 207.672 253.736 207.845 253.672 208.002C253.607 208.159 253.498 208.293 253.358 208.389C253.218 208.485 253.053 208.538 252.884 208.541H218.296C214.097 208.541 210.071 206.874 207.102 203.905C204.133 200.936 202.466 196.91 202.466 192.712V159.39C202.466 159.159 202.374 158.937 202.211 158.774C202.047 158.611 201.826 158.519 201.595 158.519H194.208C194.033 158.521 193.861 158.47 193.715 158.373C193.57 158.276 193.457 158.137 193.391 157.974C193.326 157.812 193.311 157.633 193.348 157.462C193.385 157.291 193.474 157.135 193.601 157.015L222.939 127.704C223.018 127.622 223.112 127.557 223.216 127.513C223.32 127.469 223.433 127.446 223.546 127.446C223.659 127.446 223.771 127.469 223.875 127.513C223.98 127.557 224.074 127.622 224.153 127.704L253.491 157.015C253.618 157.135 253.706 157.291 253.744 157.462C253.781 157.633 253.766 157.812 253.701 157.974C253.635 158.137 253.522 158.276 253.376 158.373C253.231 158.47 253.059 158.521 252.884 158.519H245.365C245.134 158.519 244.912 158.611 244.749 158.774C244.586 158.937 244.494 159.159 244.494 159.39V191.551C244.505 195.726 246.164 199.727 249.111 202.684Z" fill="#3448C5"/>
</svg>
