<svg width="319" height="209" viewBox="0 0 319 209" fill="none" xmlns="http://www.w3.org/2000/svg">
<path d="M258.342 74.1647C251.516 52.7609 238.098 34.0628 220.007 20.7431C201.915 7.42328 180.076 0.163616 157.611 0.00171905C138.617 -0.107196 119.953 4.96121 103.623 14.6624C87.2932 24.3635 73.9154 38.3307 64.9268 55.0633C48.4069 58.0238 33.2629 66.1793 21.6991 78.3428C10.1353 90.5063 2.75516 106.043 0.632903 122.691C-1.48935 139.34 1.75703 156.231 9.89954 170.906C18.0421 185.582 30.6557 197.276 45.9046 204.286L47.8833 205.183H48.0153V182.758C37.5545 176.336 29.3652 166.803 24.5951 155.493C19.825 144.183 18.7132 131.665 21.4156 119.691C24.118 107.718 30.4992 96.8907 39.6646 88.7264C48.8301 80.5621 60.3204 75.4703 72.5252 74.1647L78.0656 73.5842L80.4929 68.5978C87.3846 53.9923 98.3028 41.6578 111.964 33.0443C125.625 24.4307 141.461 19.8962 157.611 19.9737C176.854 20.1095 195.499 26.6751 210.582 38.6265C225.665 50.5778 236.319 67.2288 240.85 85.9315L242.749 93.4771H250.664C263.423 93.7388 275.575 98.9795 284.522 108.08C293.47 117.18 298.504 129.418 298.549 142.18C298.549 160.78 287.811 176.004 269.528 183.707V204.972L270.847 204.55C300.238 194.92 318.495 171.017 318.495 142.18C318.374 125.49 312.216 109.408 301.159 96.905C290.101 84.4023 274.892 76.3247 258.342 74.1647Z" fill="white"/>
<path d="M118.933 202.598L123.313 206.977C123.431 207.099 123.511 207.252 123.543 207.419C123.576 207.586 123.558 207.758 123.494 207.915C123.429 208.072 123.32 208.207 123.18 208.302C123.04 208.398 122.876 208.451 122.706 208.455H88.144C83.9456 208.455 79.9192 206.787 76.9506 203.818C73.9819 200.849 72.3141 196.823 72.3141 192.625V125.506C72.3141 125.275 72.2224 125.054 72.0591 124.89C71.8958 124.727 71.6744 124.635 71.4435 124.635H64.0562C63.8843 124.637 63.7157 124.588 63.5717 124.494C63.4277 124.4 63.3147 124.266 63.247 124.108C63.1793 123.95 63.1599 123.775 63.1912 123.606C63.2225 123.437 63.3032 123.281 63.423 123.158L92.761 93.82C92.842 93.7378 92.9385 93.6726 93.045 93.628C93.1514 93.5835 93.2656 93.5606 93.381 93.5606C93.4964 93.5606 93.6106 93.5835 93.7171 93.628C93.8235 93.6726 93.92 93.7378 94.001 93.82L123.313 123.158C123.431 123.28 123.511 123.433 123.543 123.6C123.576 123.766 123.558 123.939 123.494 124.096C123.429 124.253 123.32 124.387 123.18 124.483C123.04 124.579 122.876 124.632 122.706 124.635H115.213C114.98 124.635 114.755 124.726 114.588 124.889C114.42 125.051 114.323 125.273 114.316 125.506V191.464C114.327 195.639 115.986 199.64 118.933 202.598Z" fill="white"/>
<path d="M183.756 202.598L188.162 206.977C188.282 207.101 188.363 207.257 188.394 207.426C188.425 207.595 188.406 207.769 188.338 207.927C188.271 208.085 188.158 208.22 188.014 208.313C187.87 208.407 187.701 208.457 187.529 208.455H153.046C148.848 208.455 144.822 206.787 141.853 203.818C138.884 200.85 137.216 196.823 137.216 192.625V142.471C137.217 142.237 137.126 142.013 136.963 141.845C136.801 141.678 136.579 141.58 136.346 141.574H128.879C128.71 141.57 128.545 141.517 128.405 141.421C128.265 141.326 128.156 141.191 128.091 141.034C128.027 140.877 128.01 140.705 128.042 140.538C128.074 140.371 128.154 140.218 128.273 140.096L157.584 110.811C157.665 110.729 157.762 110.663 157.868 110.619C157.975 110.574 158.089 110.551 158.204 110.551C158.32 110.551 158.434 110.574 158.54 110.619C158.647 110.663 158.743 110.729 158.824 110.811L188.162 140.043C188.282 140.167 188.363 140.323 188.394 140.492C188.425 140.661 188.406 140.835 188.338 140.993C188.271 141.151 188.158 141.286 188.014 141.379C187.87 141.473 187.701 141.523 187.529 141.521H180.036C179.803 141.528 179.582 141.625 179.419 141.793C179.256 141.96 179.166 142.184 179.166 142.418V191.464C179.169 195.635 180.819 199.636 183.756 202.598Z" fill="white"/>
<path d="M248.606 202.598L252.986 206.977C253.104 207.099 253.184 207.252 253.216 207.419C253.248 207.586 253.231 207.758 253.167 207.915C253.102 208.072 252.993 208.207 252.853 208.302C252.713 208.398 252.548 208.451 252.379 208.455H217.79C213.592 208.455 209.566 206.787 206.597 203.818C203.628 200.849 201.961 196.823 201.961 192.625V159.303C201.961 159.072 201.869 158.85 201.706 158.687C201.542 158.524 201.321 158.432 201.09 158.432H193.703C193.528 158.434 193.356 158.383 193.21 158.286C193.065 158.189 192.952 158.05 192.886 157.887C192.82 157.725 192.805 157.547 192.843 157.375C192.88 157.204 192.968 157.049 193.096 156.928L222.434 127.617C222.513 127.535 222.607 127.471 222.711 127.426C222.815 127.382 222.927 127.359 223.041 127.359C223.154 127.359 223.266 127.382 223.37 127.426C223.475 127.471 223.569 127.535 223.648 127.617L252.986 156.928C253.113 157.049 253.201 157.204 253.239 157.375C253.276 157.547 253.261 157.725 253.195 157.887C253.13 158.05 253.017 158.189 252.871 158.286C252.726 158.383 252.554 158.434 252.379 158.432H244.86C244.629 158.432 244.407 158.524 244.244 158.687C244.081 158.85 243.989 159.072 243.989 159.303V191.464C244 195.639 245.659 199.64 248.606 202.598Z" fill="white"/>
</svg>
