<svg width="335" height="296" viewBox="0 0 335 296" fill="none" xmlns="http://www.w3.org/2000/svg">
<g clip-path="url(#clip0_7_70)">
<mask id="mask0_7_70" style="mask-type:luminance" maskUnits="userSpaceOnUse" x="0" y="0" width="335" height="295">
<path d="M334.7 0H0V294.523H334.7V0Z" fill="white"/>
</mask>
<g mask="url(#mask0_7_70)">
<path d="M90.4553 245.928H87.295L71.5197 230.153V226.993L95.6361 202.877H112.344L114.571 205.104V221.812L90.4553 245.928Z" fill="#32E6E2"/>
<path d="M71.5197 67.5048V64.3445L87.295 48.5692H90.4553L114.571 72.6853V89.3931L112.344 91.621H95.6361L71.5197 67.5048Z" fill="#32E6E2"/>
<path d="M210.389 195.08H187.438L185.521 193.163V139.439C185.521 129.881 181.765 122.472 170.238 122.213C164.306 122.058 157.519 122.213 150.267 122.498L149.179 123.612V193.137L147.262 195.054H124.311L122.394 193.137V101.361L124.311 99.4438H175.963C196.038 99.4438 212.306 115.711 212.306 135.786V193.163L210.389 195.08Z" fill="white"/>
<path d="M93.7191 160.68H1.91686L0 158.763V135.761L1.91686 133.844H93.7191L95.6361 135.761V158.763L93.7191 160.68Z" fill="#32E6E2"/>
<path d="M332.81 160.68H241.007L239.09 158.763V135.761L241.007 133.844H332.81L334.726 135.761V158.763L332.81 160.68Z" fill="#32E6E2"/>
<path d="M154.126 70.7687V1.91686L156.043 0H179.045L180.962 1.91686V70.7687L179.045 72.6853H156.043L154.126 70.7687Z" fill="#32E6E2"/>
<path d="M154.126 292.606V223.755L156.043 221.838H179.045L180.962 223.755V292.606L179.045 294.523H156.043L154.126 292.606Z" fill="#32E6E2"/>
</g>
</g>
<defs>
<clipPath id="clip0_7_70">
<rect width="334.7" height="295.477" fill="white"/>
</clipPath>
</defs>
</svg>
