<svg width="800" height="600" viewBox="0 0 800 600" fill="none" xmlns="http://www.w3.org/2000/svg">
<rect width="800" height="600" fill="white"/>
<mask id="mask0_1_2" style="mask-type:luminance" maskUnits="userSpaceOnUse" x="81" y="62" width="335" height="294">
<path d="M415.7 62H81V355.8H415.7V62Z" fill="white"/>
</mask>
<g mask="url(#mask0_1_2)">
<path d="M171.455 307.325H168.295L152.52 291.588V288.436L176.636 264.379H193.344L195.572 266.601V283.268L171.455 307.325Z" fill="#05BDBA"/>
<path d="M152.52 129.339V126.187L168.295 110.45H171.455L195.572 134.507V151.174L193.344 153.396H176.636L152.52 129.339Z" fill="#05BDBA"/>
<path d="M291.389 256.601H268.438L266.521 254.689V201.097C266.521 191.562 262.765 184.171 251.238 183.913C245.306 183.758 238.52 183.913 231.267 184.197L230.179 185.308V254.663L228.262 256.575H205.311L203.394 254.663V163.112L205.311 161.2H256.963C277.038 161.2 293.306 177.427 293.306 197.453V254.689L291.389 256.601Z" fill="#014847"/>
<path d="M174.719 222.285H82.9169L81 220.373V197.427L82.9169 195.515H174.719L176.636 197.427V220.373L174.719 222.285Z" fill="#05BDBA"/>
<path d="M413.81 222.285H322.007L320.09 220.373V197.427L322.007 195.515H413.81L415.726 197.427V220.373L413.81 222.285Z" fill="#05BDBA"/>
<path d="M235.126 132.595V63.9122L237.043 62H260.045L261.962 63.9122V132.595L260.045 134.507H237.043L235.126 132.595Z" fill="#05BDBA"/>
<path d="M235.126 353.888V285.206L237.043 283.294H260.045L261.962 285.206V353.888L260.045 355.8H237.043L235.126 353.888Z" fill="#05BDBA"/>
</g>
<path d="M657.847 381.252C651.021 359.848 637.603 341.15 619.512 327.83C601.42 314.51 579.581 307.25 557.116 307.089C538.122 306.98 519.458 312.048 503.128 321.749C486.798 331.45 473.42 345.418 464.432 362.15C447.912 365.111 432.768 373.266 421.204 385.43C409.64 397.593 402.26 413.13 400.138 429.778C398.016 446.427 401.262 463.318 409.405 477.993C417.547 492.669 430.161 504.363 445.41 511.373L447.388 512.27H447.52V489.844C437.06 483.423 428.87 473.89 424.1 462.58C419.33 451.27 418.218 438.752 420.921 426.778C423.623 414.805 430.004 403.978 439.17 395.813C448.335 387.649 459.825 382.557 472.03 381.252L477.571 380.671L479.998 375.685C486.89 361.079 497.808 348.745 511.469 340.131C525.13 331.518 540.966 326.983 557.116 327.061C576.359 327.196 595.004 333.762 610.087 345.713C625.17 357.665 635.824 374.316 640.355 393.018L642.254 400.564H650.169C662.928 400.826 675.08 406.066 684.027 415.167C692.975 424.267 698.009 436.505 698.054 449.267C698.054 467.867 687.316 483.09 669.033 490.794V512.059L670.352 511.637C699.743 502.007 718 478.104 718 449.267C717.879 432.577 711.721 416.494 700.664 403.992C689.606 391.489 674.397 383.412 657.847 381.252Z" fill="#3448C5"/>
<path d="M518.438 509.684L522.818 514.064C522.936 514.186 523.016 514.339 523.048 514.506C523.081 514.672 523.063 514.845 522.999 515.002C522.934 515.159 522.825 515.293 522.685 515.389C522.545 515.485 522.381 515.538 522.211 515.542H487.649C483.451 515.542 479.424 513.874 476.456 510.905C473.487 507.936 471.819 503.91 471.819 499.712V432.593C471.819 432.362 471.727 432.141 471.564 431.977C471.401 431.814 471.179 431.722 470.948 431.722H463.561C463.389 431.724 463.221 431.675 463.077 431.581C462.933 431.487 462.82 431.353 462.752 431.195C462.684 431.037 462.665 430.862 462.696 430.693C462.728 430.524 462.808 430.368 462.928 430.245L492.266 400.907C492.347 400.825 492.444 400.759 492.55 400.715C492.656 400.67 492.771 400.647 492.886 400.647C493.001 400.647 493.116 400.67 493.222 400.715C493.329 400.759 493.425 400.825 493.506 400.907L522.818 430.245C522.936 430.367 523.016 430.52 523.048 430.687C523.081 430.853 523.063 431.026 522.999 431.183C522.934 431.34 522.825 431.474 522.685 431.57C522.545 431.666 522.381 431.719 522.211 431.722H514.718C514.485 431.722 514.26 431.813 514.093 431.976C513.925 432.138 513.828 432.36 513.821 432.593V498.551C513.832 502.726 515.491 506.727 518.438 509.684Z" fill="#3448C5"/>
<path d="M583.261 509.685L587.667 514.064C587.787 514.187 587.868 514.343 587.899 514.513C587.93 514.682 587.911 514.856 587.843 515.014C587.776 515.172 587.663 515.306 587.519 515.4C587.375 515.494 587.206 515.543 587.034 515.542H552.551C548.353 515.542 544.327 513.874 541.358 510.905C538.389 507.937 536.722 503.91 536.722 499.712V449.558C536.722 449.324 536.631 449.1 536.468 448.932C536.306 448.765 536.084 448.667 535.851 448.66H528.384C528.215 448.657 528.05 448.604 527.91 448.508C527.77 448.412 527.661 448.278 527.596 448.121C527.532 447.964 527.515 447.791 527.547 447.625C527.579 447.458 527.659 447.305 527.778 447.183L557.089 417.898C557.17 417.816 557.267 417.75 557.373 417.706C557.48 417.661 557.594 417.638 557.709 417.638C557.825 417.638 557.939 417.661 558.045 417.706C558.152 417.75 558.248 417.816 558.329 417.898L587.667 447.13C587.787 447.254 587.868 447.41 587.899 447.579C587.93 447.748 587.911 447.922 587.843 448.08C587.776 448.238 587.663 448.373 587.519 448.466C587.375 448.56 587.206 448.609 587.034 448.608H579.541C579.308 448.615 579.087 448.712 578.924 448.88C578.761 449.047 578.671 449.271 578.671 449.505V498.551C578.674 502.722 580.324 506.723 583.261 509.685Z" fill="#3448C5"/>
<path d="M648.111 509.684L652.491 514.064C652.609 514.186 652.689 514.339 652.721 514.506C652.753 514.672 652.736 514.845 652.672 515.002C652.607 515.159 652.498 515.293 652.358 515.389C652.218 515.485 652.053 515.538 651.884 515.541H617.296C613.097 515.541 609.071 513.874 606.102 510.905C603.133 507.936 601.466 503.91 601.466 499.712V466.39C601.466 466.159 601.374 465.937 601.211 465.774C601.047 465.611 600.826 465.519 600.595 465.519H593.208C593.033 465.521 592.861 465.47 592.715 465.373C592.57 465.276 592.457 465.137 592.391 464.974C592.326 464.812 592.311 464.633 592.348 464.462C592.385 464.291 592.474 464.135 592.601 464.015L621.939 434.704C622.018 434.622 622.112 434.557 622.216 434.513C622.32 434.469 622.433 434.446 622.546 434.446C622.659 434.446 622.771 434.469 622.875 434.513C622.98 434.557 623.074 434.622 623.153 434.704L652.491 464.015C652.618 464.135 652.706 464.291 652.744 464.462C652.781 464.633 652.766 464.812 652.701 464.974C652.635 465.137 652.522 465.276 652.376 465.373C652.231 465.47 652.059 465.521 651.884 465.519H644.365C644.134 465.519 643.912 465.611 643.749 465.774C643.586 465.937 643.494 466.159 643.494 466.39V498.551C643.505 502.726 645.164 506.727 648.111 509.684Z" fill="#3448C5"/>
</svg>
